<?xml version="1.0" standalone="no"?>
<!DOCTYPE svg PUBLIC "-//W3C//DTD SVG 20010904//EN"
 "http://www.w3.org/TR/2001/REC-SVG-20010904/DTD/svg10.dtd">
<svg version="1.0" xmlns="http://www.w3.org/2000/svg"
 width="2688.000000pt" height="2688.000000pt" viewBox="0 0 2688.000000 2688.000000"
 preserveAspectRatio="xMidYMid meet">
<metadata>
Created by potrace 1.11, written by Peter Selinger 2001-2013
</metadata>
<g transform="translate(0.000000,2688.000000) scale(0.100000,-0.100000)"
fill="#000000" stroke="none">
<path d="M13637 25683 c-4 -26 -8 -57 -11 -69 -2 -12 -8 -45 -11 -75 -11 -81
-13 -91 -20 -129 -3 -19 -8 -48 -11 -65 -2 -16 -9 -55 -14 -85 -5 -30 -12 -73
-15 -95 -6 -42 -13 -80 -15 -80 -1 0 -3 -16 -4 -35 -2 -19 -6 -54 -10 -77 -4
-23 -9 -55 -11 -70 -2 -15 -6 -37 -8 -48 -4 -18 -15 -89 -22 -140 -2 -11 -6
-36 -10 -55 -3 -19 -8 -52 -10 -74 -3 -21 -7 -46 -9 -55 -3 -9 -7 -36 -10 -61
-3 -25 -8 -56 -11 -70 -3 -14 -8 -43 -11 -65 -3 -22 -8 -51 -10 -65 -6 -35
-12 -69 -17 -110 -3 -19 -7 -48 -10 -65 -3 -16 -9 -50 -12 -75 -4 -25 -9 -54
-11 -65 -2 -11 -7 -40 -10 -65 -3 -25 -7 -52 -9 -60 -1 -8 -6 -35 -10 -60 -4
-25 -9 -54 -12 -65 -3 -11 -5 -27 -5 -35 0 -8 -6 -49 -14 -90 -7 -41 -16 -95
-19 -120 -4 -25 -8 -54 -10 -65 -2 -11 -6 -36 -9 -55 -2 -19 -7 -49 -10 -66
-3 -17 -8 -48 -11 -70 -2 -21 -7 -50 -10 -64 -3 -14 -7 -41 -9 -60 -3 -19 -7
-46 -11 -60 -3 -14 -7 -47 -10 -73 -3 -27 -7 -52 -9 -56 -3 -4 -7 -31 -10 -60
-3 -29 -7 -60 -10 -69 -3 -9 -7 -35 -11 -57 -3 -22 -10 -69 -16 -105 -10 -64
-17 -111 -24 -160 -4 -29 -9 -60 -25 -155 -6 -38 -13 -81 -15 -95 -2 -14 -4
-25 -5 -25 -1 0 -3 -9 -4 -20 -12 -88 -20 -139 -32 -210 -3 -16 -7 -43 -9 -60
-3 -16 -16 -100 -29 -185 -14 -85 -28 -173 -31 -195 -4 -22 -8 -51 -11 -65 -3
-14 -7 -41 -10 -60 -2 -19 -9 -62 -15 -95 -6 -33 -13 -80 -16 -105 -2 -25 -9
-65 -14 -90 -5 -25 -11 -65 -14 -90 -3 -25 -9 -67 -15 -95 -5 -27 -12 -70 -15
-95 -3 -25 -8 -54 -12 -64 -3 -11 -7 -33 -8 -50 -4 -43 -18 -128 -31 -196 -2
-8 -6 -39 -8 -68 -3 -29 -8 -56 -10 -60 -2 -4 -7 -29 -10 -57 -4 -27 -9 -63
-12 -80 -3 -16 -7 -43 -10 -60 -3 -16 -6 -39 -8 -50 -2 -11 -7 -40 -10 -65 -4
-25 -11 -70 -16 -100 -13 -76 -18 -108 -25 -160 -3 -25 -8 -52 -10 -60 -2 -8
-6 -33 -9 -55 -7 -51 -17 -114 -22 -140 -2 -11 -6 -38 -9 -60 -7 -46 -13 -80
-15 -80 -1 0 -3 -18 -6 -40 -6 -54 -12 -100 -14 -100 -1 0 -3 -12 -5 -26 -2
-15 -6 -44 -10 -65 -3 -22 -8 -52 -10 -69 -3 -16 -7 -41 -10 -55 -3 -14 -8
-45 -10 -70 -3 -25 -8 -56 -11 -70 -7 -31 -11 -52 -18 -110 -6 -47 -12 -82
-22 -140 -8 -43 -13 -74 -18 -120 -3 -19 -6 -35 -6 -35 -1 0 -3 -11 -5 -25 -9
-69 -15 -107 -20 -130 -2 -13 -7 -42 -11 -65 -3 -22 -9 -60 -14 -85 -4 -25 -8
-52 -8 -60 0 -8 -2 -24 -5 -35 -2 -11 -8 -42 -11 -68 -4 -27 -10 -59 -12 -70
-3 -12 -6 -35 -8 -52 -3 -16 -7 -48 -11 -70 -14 -89 -47 -291 -49 -310 -8 -53
-19 -122 -22 -140 -8 -38 -23 -141 -29 -190 -2 -16 -4 -31 -5 -32 -2 -2 -4
-12 -5 -23 -1 -11 -3 -21 -5 -22 -1 -2 -3 -19 -5 -38 -2 -19 -8 -62 -14 -95
-5 -33 -12 -73 -14 -90 -3 -16 -7 -41 -11 -55 -3 -14 -8 -45 -11 -70 -12 -88
-17 -125 -18 -137 0 -7 -4 -13 -9 -13 -5 0 -6 -4 -3 -10 3 -5 -1 -50 -10 -100
-9 -50 -18 -108 -20 -128 -2 -20 -8 -62 -14 -92 -6 -30 -13 -73 -16 -95 -3
-23 -7 -50 -9 -60 -6 -31 -16 -97 -21 -130 -4 -35 -14 -99 -21 -135 -4 -24
-10 -62 -20 -125 -3 -16 -9 -55 -14 -85 -5 -30 -12 -73 -15 -95 -4 -22 -8 -51
-10 -64 -2 -13 -7 -45 -11 -70 -4 -25 -8 -55 -11 -66 -2 -11 -6 -38 -9 -60 -3
-22 -9 -66 -15 -98 -6 -32 -12 -70 -14 -85 -2 -15 -7 -45 -11 -67 -3 -22 -7
-51 -9 -65 -1 -14 -3 -25 -5 -25 -1 0 -3 -13 -5 -30 -1 -16 -3 -30 -5 -30 -1
0 -3 -13 -5 -30 -3 -33 -11 -85 -25 -160 -5 -27 -12 -68 -15 -90 -3 -22 -8
-53 -10 -70 -3 -16 -7 -46 -10 -65 -2 -19 -5 -35 -6 -35 -1 0 -3 -11 -4 -25
-3 -24 -10 -70 -19 -120 -3 -14 -10 -61 -17 -105 -6 -44 -13 -89 -15 -100 -2
-11 -6 -36 -8 -55 -3 -19 -8 -51 -11 -70 -4 -19 -8 -48 -10 -65 -3 -16 -7 -41
-10 -55 -3 -14 -7 -43 -10 -65 -3 -22 -7 -47 -10 -55 -2 -8 -7 -37 -10 -65 -4
-27 -9 -61 -10 -75 -2 -14 -6 -36 -9 -50 -2 -14 -7 -41 -10 -60 -3 -19 -8 -46
-10 -60 -3 -14 -7 -45 -10 -70 -3 -25 -12 -84 -21 -133 -8 -48 -18 -104 -21
-125 -3 -20 -6 -46 -8 -57 -2 -11 -7 -42 -11 -70 -4 -27 -9 -59 -11 -70 -2
-10 -6 -37 -9 -60 -7 -45 -15 -99 -29 -180 -4 -25 -23 -143 -41 -255 -2 -14
-6 -43 -10 -65 -3 -23 -7 -52 -10 -65 -3 -13 -7 -42 -10 -65 -4 -22 -18 -110
-32 -195 -14 -85 -27 -168 -29 -185 -1 -16 -5 -41 -8 -55 -2 -14 -10 -59 -16
-100 -15 -95 -17 -107 -24 -150 -3 -19 -8 -48 -11 -65 -3 -16 -8 -52 -11 -80
-3 -27 -7 -58 -10 -67 -3 -10 -7 -30 -10 -45 -2 -16 -6 -41 -9 -58 -9 -58 -16
-102 -20 -136 -6 -41 -11 -72 -20 -119 -4 -19 -8 -46 -10 -60 -11 -98 -16
-134 -20 -139 -2 -4 -6 -27 -9 -51 -4 -25 -9 -58 -13 -75 -3 -16 -7 -39 -8
-50 -1 -11 -5 -40 -9 -65 -4 -25 -9 -58 -11 -75 -2 -16 -5 -30 -6 -30 -2 0 -6
-32 -12 -97 -3 -25 -7 -50 -10 -55 -3 -4 -8 -30 -11 -58 -4 -27 -9 -57 -11
-65 -2 -8 -6 -35 -9 -60 -3 -25 -8 -58 -11 -75 -7 -44 -14 -85 -20 -130 -4
-22 -8 -51 -11 -65 -3 -14 -7 -45 -11 -70 -6 -50 -11 -75 -13 -75 -2 0 -7 -38
-15 -100 -2 -22 -7 -51 -9 -65 -9 -44 -15 -82 -22 -129 -4 -25 -8 -55 -10 -66
-3 -11 -7 -36 -9 -55 -17 -118 -32 -205 -35 -205 -1 0 -3 -16 -4 -35 -2 -19
-11 -80 -20 -134 -9 -54 -14 -101 -12 -104 3 -2 1 -12 -4 -22 -5 -9 -12 -39
-15 -66 -12 -87 -13 -98 -30 -194 -9 -52 -18 -104 -20 -115 -3 -21 -13 -87
-21 -140 -2 -16 -6 -41 -9 -55 -2 -14 -7 -43 -10 -65 -3 -23 -7 -52 -10 -65
-3 -13 -7 -42 -10 -65 -6 -39 -9 -59 -19 -120 -3 -16 -7 -48 -11 -70 -3 -23
-8 -52 -10 -65 -3 -14 -8 -41 -11 -60 -3 -19 -9 -60 -14 -90 -5 -30 -12 -73
-15 -95 -3 -23 -8 -52 -11 -65 -3 -14 -7 -43 -10 -65 -10 -77 -13 -101 -30
-195 -9 -52 -18 -108 -19 -125 -2 -16 -4 -30 -5 -30 -1 0 -3 -14 -5 -31 -3
-17 -11 -70 -18 -117 -13 -79 -13 -87 2 -89 9 0 21 -2 26 -3 6 -1 33 -5 60 -9
28 -4 73 -12 100 -17 28 -5 64 -11 80 -13 17 -3 53 -8 80 -12 28 -5 62 -8 78
-9 15 0 27 -3 27 -6 0 -3 12 -7 28 -7 15 -1 41 -4 57 -7 17 -4 43 -8 58 -10
16 -2 44 -6 63 -10 36 -6 93 -15 134 -20 14 -2 25 -4 25 -5 0 -3 36 -9 86 -14
26 -3 59 -8 75 -12 15 -4 41 -8 58 -9 17 -2 31 -4 31 -5 0 -1 16 -3 35 -5 19
-2 51 -7 70 -11 19 -4 46 -8 60 -10 14 -1 39 -5 55 -8 29 -5 61 -10 128 -21
17 -3 46 -8 62 -11 17 -3 37 -6 45 -6 8 0 47 -6 85 -13 39 -7 77 -13 85 -13 8
0 27 -3 43 -6 42 -9 138 -25 182 -31 22 -3 60 -8 85 -11 25 -4 47 -9 50 -13 3
-3 23 -6 45 -6 22 1 49 -2 61 -6 11 -4 36 -8 55 -10 19 -2 38 -5 43 -8 5 -2
23 -6 40 -7 37 -4 88 -11 136 -19 109 -19 167 -28 255 -41 28 -4 55 -8 62 -10
6 -1 30 -5 53 -8 22 -3 80 -12 128 -20 48 -9 101 -17 117 -20 17 -2 30 -5 30
-6 0 -1 16 -3 35 -5 19 -1 48 -5 64 -8 16 -4 50 -9 75 -13 25 -3 57 -8 71 -10
14 -3 41 -7 60 -9 19 -3 42 -7 50 -10 8 -2 40 -7 70 -11 84 -10 95 -12 95 -14
0 -1 14 -3 30 -5 17 -2 57 -8 90 -13 33 -6 61 -9 62 -8 1 0 5 28 8 61 4 33 9
62 10 65 2 3 6 29 10 59 4 30 9 63 11 75 5 23 11 62 19 116 3 19 7 44 9 55 2
11 7 44 11 74 3 30 8 58 10 61 3 4 7 27 10 51 2 24 7 55 9 69 5 25 11 67 21
138 3 20 10 60 15 87 5 28 12 70 15 95 3 25 8 52 10 60 2 8 7 35 10 60 3 25 8
56 10 70 3 14 7 43 10 65 6 45 13 80 15 80 1 0 4 18 5 40 2 22 4 40 5 40 1 0
3 11 5 25 1 14 5 39 9 55 3 17 11 66 17 110 6 44 12 82 14 85 2 3 6 32 9 64 4
32 8 62 10 65 2 3 7 29 10 56 4 28 9 64 12 80 3 17 7 41 9 55 2 14 6 36 9 50
2 14 10 61 16 105 7 44 14 89 16 100 3 11 7 40 9 65 3 25 8 56 10 70 11 52 14
69 19 106 10 65 18 118 22 139 2 11 7 40 10 65 3 25 7 52 9 60 2 8 7 35 10 60
3 25 10 71 16 103 6 32 12 70 14 85 2 15 7 45 11 67 3 22 8 51 10 65 1 14 6
43 9 65 4 22 7 50 8 63 0 12 5 22 10 22 4 0 6 4 3 8 -2 4 2 43 9 87 7 44 16
97 19 119 4 21 9 42 12 47 3 5 -1 9 -8 9 -8 0 -9 3 -3 8 6 4 11 18 13 32 2 14
6 36 8 50 3 14 7 39 9 55 5 35 11 68 18 110 3 17 11 66 17 110 7 44 14 89 17
100 2 11 6 31 7 45 12 96 19 141 27 185 5 28 12 66 15 85 3 19 11 73 19 120 8
47 17 105 21 130 3 25 8 54 10 65 6 46 16 103 24 155 6 30 12 73 15 95 3 22 7
51 10 65 2 13 7 42 10 65 5 37 15 96 30 185 4 19 8 53 11 75 2 22 8 59 14 81
5 23 12 62 14 85 3 24 7 58 10 74 8 48 34 206 41 250 6 38 13 82 20 135 2 14
4 25 5 25 1 0 3 9 4 20 17 119 23 163 29 190 3 11 8 45 12 75 4 30 9 64 11 75
7 34 13 68 19 115 4 25 11 67 16 93 5 26 8 51 8 55 -1 4 0 9 1 12 2 6 5 26 14
90 3 25 9 56 12 70 3 14 7 36 8 50 2 14 6 43 10 65 4 22 8 55 11 73 2 18 6 45
10 60 3 15 7 41 9 57 3 17 10 62 16 100 7 39 12 80 12 93 0 12 3 22 7 22 3 0
6 15 7 33 1 33 12 111 19 137 3 8 7 38 11 65 10 73 12 90 14 90 1 0 3 9 4 20
3 23 15 104 22 155 3 19 7 42 9 50 2 8 7 38 11 65 3 28 8 59 10 70 3 11 7 38
10 60 3 22 7 51 10 65 2 14 9 54 14 90 6 36 13 75 15 87 8 48 28 180 30 203 2
14 4 25 5 25 1 0 3 12 5 26 2 15 6 44 10 65 3 22 8 53 10 69 3 17 7 41 10 55
3 14 8 45 11 70 2 25 6 52 9 60 2 8 7 35 10 60 3 25 9 59 11 75 3 17 7 42 9
57 2 15 9 53 14 85 6 32 12 72 15 88 2 17 8 50 12 75 4 25 8 59 10 75 3 30 11
70 14 70 1 0 3 14 5 30 5 46 15 115 25 170 5 28 11 68 14 90 3 22 8 51 10 65
7 38 17 101 22 140 2 19 9 60 14 90 15 90 19 113 25 159 3 23 7 46 9 50 2 3 7
33 11 66 3 32 9 63 11 67 3 4 7 29 9 55 3 27 6 57 9 68 2 11 7 40 11 65 3 25
9 59 12 75 2 17 6 44 9 60 2 17 6 41 9 55 2 14 7 39 9 55 2 17 8 50 12 75 4
25 8 56 10 70 1 14 5 36 8 50 7 30 18 104 22 145 1 17 3 30 4 30 2 0 9 35 15
75 2 19 6 46 9 60 2 14 7 48 11 75 7 49 10 66 20 115 2 14 7 45 10 70 2 25 7
59 11 75 11 56 15 80 16 108 1 15 4 27 7 27 3 0 6 12 7 28 0 15 4 52 9 82 4
30 9 64 11 75 1 11 3 20 4 20 1 0 3 11 5 25 2 14 6 42 9 63 3 20 8 54 11 75 3
20 10 62 15 92 5 30 12 71 15 90 3 19 8 47 10 63 11 60 14 84 20 127 3 25 8
56 11 70 2 14 6 39 8 57 3 18 7 40 10 50 3 10 7 38 10 63 3 25 8 56 11 70 2
14 6 41 9 60 8 60 16 113 27 165 5 28 11 69 14 93 2 23 9 71 16 105 6 34 13
71 14 82 8 62 16 113 20 135 3 14 7 39 9 55 3 17 7 46 11 65 3 19 8 51 10 70
2 19 4 35 5 35 3 0 12 59 25 155 2 14 4 25 5 25 1 0 3 14 5 30 3 29 11 84 20
135 3 14 8 43 11 65 7 43 10 61 19 115 3 19 7 49 9 65 3 17 7 46 10 65 4 19 8
49 10 65 2 17 11 71 20 120 16 100 25 155 31 200 3 17 7 41 9 55 3 14 8 43 11
65 3 23 8 52 10 65 3 14 8 48 11 75 4 28 8 52 9 55 4 6 18 115 18 138 0 6 5
12 10 12 5 0 7 6 4 13 -3 7 1 46 8 87 7 41 16 98 19 125 4 28 9 57 11 65 5 18
11 55 20 130 4 30 9 64 12 75 2 11 6 33 8 48 2 15 9 53 14 83 6 31 10 58 10
62 -1 4 0 9 1 12 1 3 4 19 5 35 2 17 4 30 5 30 2 0 10 50 14 90 2 17 5 30 6
30 1 0 3 14 5 30 5 39 13 92 20 130 7 42 14 83 20 130 4 22 8 51 11 65 5 30
14 84 19 125 2 17 4 30 5 30 1 0 3 9 4 20 7 52 17 112 21 135 3 14 7 41 10 60
3 19 7 49 10 65 3 17 8 46 11 65 3 19 8 48 10 63 6 47 14 102 19 127 3 14 7
39 10 55 9 69 16 111 21 135 5 26 14 87 19 130 1 14 8 52 14 85 6 33 13 78 16
100 3 22 10 63 15 90 8 46 15 90 25 170 3 17 7 41 9 55 3 13 8 42 11 65 3 22
10 65 15 95 6 30 12 71 15 90 3 19 7 46 9 60 2 14 9 54 15 90 6 36 12 81 15
100 2 19 7 46 10 60 3 14 8 45 11 70 2 25 7 56 10 70 3 14 7 39 10 55 2 17 7
48 10 70 4 22 13 76 20 120 7 44 10 83 6 87 -3 3 -26 9 -51 13 -25 3 -58 9
-75 12 -16 3 -41 7 -55 9 -14 2 -36 5 -50 7 -14 3 -49 8 -79 12 -30 3 -63 9
-75 11 -12 3 -34 7 -51 10 -16 2 -46 7 -65 11 -19 3 -48 7 -65 8 -16 2 -43 6
-60 9 -16 4 -46 9 -65 12 -19 2 -91 14 -160 25 -136 22 -167 27 -220 34 -19 2
-46 7 -60 10 -14 3 -72 12 -130 21 -58 8 -116 17 -130 20 -52 10 -85 16 -115
19 -16 2 -30 4 -30 5 0 1 -13 3 -30 5 -30 4 -64 9 -140 20 -22 3 -51 8 -65 12
-14 3 -36 7 -50 9 -56 7 -138 20 -200 31 -19 3 -46 7 -60 9 -14 2 -56 8 -95
14 -38 7 -82 14 -97 16 -16 2 -43 7 -60 10 -18 3 -44 7 -58 9 -25 3 -55 8
-160 25 -30 5 -71 11 -90 14 -19 3 -46 8 -60 11 -14 3 -43 7 -65 10 -22 3 -49
7 -60 9 -11 2 -42 7 -68 10 -27 4 -56 9 -65 11 -10 1 -39 6 -67 9 -27 4 -57 9
-65 11 -8 2 -33 6 -55 10 -22 3 -51 7 -65 10 -14 2 -59 9 -100 15 -41 6 -86
14 -100 16 -14 2 -42 7 -63 10 -21 3 -44 7 -50 8 -32 7 -158 25 -218 32 l-46
6 -6 -49z"/>
<path d="M11858 5224 c-2 -1 -26 -6 -54 -9 -28 -3 -60 -7 -71 -9 -12 -3 -43
-8 -70 -12 -56 -9 -53 -9 -73 -17 -8 -4 -26 -9 -40 -11 -14 -3 -26 -5 -27 -7
-2 -1 -6 -2 -10 -3 -5 -1 -24 -6 -43 -10 -19 -5 -41 -12 -50 -16 -8 -4 -42
-18 -75 -31 -87 -33 -206 -88 -236 -110 -14 -10 -29 -16 -33 -12 -3 3 -6 1 -6
-5 0 -7 -7 -12 -15 -12 -8 0 -15 -4 -15 -10 0 -5 -5 -10 -11 -10 -8 0 -72 -42
-154 -102 -29 -21 -173 -146 -193 -168 -78 -83 -103 -112 -153 -175 -68 -84
-150 -208 -168 -252 -7 -18 -17 -33 -22 -33 -5 0 -9 -6 -9 -14 0 -7 -11 -33
-24 -58 -24 -45 -105 -256 -112 -291 -2 -10 -6 -27 -9 -37 -6 -18 -11 -42 -21
-90 -3 -14 -9 -43 -14 -65 -11 -50 -22 -144 -24 -211 -2 -27 -6 -55 -9 -61 -4
-7 -3 -14 3 -18 6 -4 7 -12 3 -18 -8 -13 -7 -92 1 -192 7 -71 9 -87 22 -165 4
-25 7 -49 6 -53 -1 -4 2 -16 7 -25 5 -9 12 -35 15 -57 4 -21 23 -87 42 -145
20 -58 37 -111 37 -117 0 -7 4 -13 9 -13 4 0 8 -9 8 -20 0 -11 4 -20 8 -20 5
0 15 -18 22 -40 7 -22 17 -40 22 -40 4 0 7 -3 6 -7 -2 -11 21 -60 51 -108 40
-63 50 -79 57 -95 4 -8 13 -21 20 -30 7 -8 35 -44 61 -80 71 -96 255 -278 362
-359 51 -39 96 -71 100 -71 4 0 16 -8 27 -18 48 -41 346 -187 358 -174 3 3 6
0 6 -7 0 -6 6 -11 13 -10 6 1 21 -1 32 -5 49 -19 75 -27 145 -45 104 -26 134
-32 255 -47 83 -11 379 -11 450 0 28 4 62 9 77 10 14 2 39 7 55 10 15 4 37 8
48 10 34 7 149 37 165 43 8 3 20 7 25 8 31 8 142 53 224 91 51 24 97 44 102
44 5 0 9 5 9 10 0 6 7 10 15 10 8 0 15 5 15 10 0 6 5 10 10 10 11 0 169 101
191 122 8 7 37 31 64 53 50 40 183 170 240 236 65 74 186 254 225 334 8 17 19
33 23 36 5 3 10 12 11 20 1 8 15 41 30 74 24 52 97 251 95 258 -1 1 4 20 10
42 5 22 12 54 15 70 3 17 10 55 16 85 19 92 24 168 24 330 -1 238 -19 352 -91
585 -14 44 -32 96 -40 115 -37 89 -127 262 -168 323 -25 38 -45 72 -45 77 0 4
-7 10 -15 14 -8 3 -15 10 -15 16 0 6 -6 17 -12 24 -7 7 -26 30 -43 52 -31 41
-245 259 -245 250 0 -3 -11 5 -24 17 -26 25 -66 57 -88 72 -78 52 -139 91
-168 108 -68 39 -145 77 -157 77 -7 0 -13 5 -13 10 0 6 -7 10 -15 10 -8 0 -23
4 -33 9 -16 9 -51 23 -62 25 -3 1 -9 4 -15 7 -15 9 -175 57 -210 63 -16 3 -45
10 -63 15 -18 5 -35 10 -37 10 -3 1 -6 1 -7 2 -4 1 -62 8 -108 13 -19 2 -35 5
-35 6 0 4 -384 8 -387 4z"/>
</g>
</svg>
